<svg width="32" height="33" viewBox="0 0 32 33" fill="none" xmlns="http://www.w3.org/2000/svg">
<path d="M5.73332 22.36H4.70665C3.57271 22.36 2.65332 21.4408 2.65332 20.3066V16.2C2.65332 15.066 3.57271 14.1466 4.70665 14.1466H5.73332L8.28008 8.20453C8.60359 7.44962 9.34593 6.95996 10.1673 6.95996H17.726C18.5474 6.95996 19.2897 7.44962 19.6134 8.20453L22.16 14.1466H27.2933C28.4275 14.1466 29.3467 15.066 29.3467 16.2V20.3066C29.3467 21.4408 28.4275 22.36 27.2933 22.36H26.2667" stroke="black" stroke-width="2.4" stroke-linecap="round" stroke-linejoin="round"/>
<path d="M23.1844 25.4396C21.4822 25.4396 20.1023 24.0599 20.1023 22.3577C20.1023 20.6551 21.4822 19.2754 23.1844 19.2754C24.8868 19.2754 26.2667 20.6551 26.2667 22.3577C26.2667 24.0599 24.8868 25.4396 23.1844 25.4396Z" stroke="black" stroke-width="2.4" stroke-linecap="round" stroke-linejoin="round"/>
<path d="M8.81119 25.4396C7.10881 25.4396 5.72888 24.0599 5.72888 22.3577C5.72888 20.6553 7.10881 19.2754 8.81119 19.2754C10.5136 19.2754 11.8933 20.6553 11.8933 22.3577C11.8933 24.0599 10.5134 25.4396 8.81119 25.4396Z" stroke="black" stroke-width="2.4" stroke-linecap="round" stroke-linejoin="round"/>
<path d="M20.1025 22.3599H11.8933" stroke="black" stroke-width="2.4" stroke-linecap="round" stroke-linejoin="round"/>
<path d="M5.73328 14.1465H22.1599" stroke="black" stroke-width="2.4" stroke-linecap="round" stroke-linejoin="round"/>
</svg>
