<svg width="15" height="70" viewBox="0 0 15 70" fill="none" xmlns="http://www.w3.org/2000/svg">
<path fill-rule="evenodd" clip-rule="evenodd" d="M1.40625 8.5625C1.40625 5.19688 4.13437 2.46875 7.5 2.46875C10.8656 2.46875 13.5938 5.19688 13.5938 8.5625C13.5938 10.7459 12.4669 12.5828 11.2419 13.9384C10.0131 15.2981 8.64 16.2247 8.04281 16.5966C7.88024 16.6988 7.69207 16.7531 7.5 16.7531C7.30793 16.7531 7.11976 16.6988 6.95719 16.5966C6.36031 16.2247 4.98687 15.2981 3.75813 13.9384C2.53312 12.5828 1.40625 10.7459 1.40625 8.5625ZM7.5 11.0625C8.16304 11.0625 8.79893 10.7991 9.26777 10.3303C9.73661 9.86143 10 9.22554 10 8.5625C10 7.89946 9.73661 7.26357 9.26777 6.79473C8.79893 6.32589 8.16304 6.0625 7.5 6.0625C6.83696 6.0625 6.20107 6.32589 5.73223 6.79473C5.26339 7.26357 5 7.89946 5 8.5625C5 9.22554 5.26339 9.86143 5.73223 10.3303C6.20107 10.7991 6.83696 11.0625 7.5 11.0625Z" fill="black"/>
<path d="M7.5 22L7.5 50" stroke="black" stroke-opacity="0.1" stroke-linecap="round" stroke-dasharray="2 2"/>
<path fill-rule="evenodd" clip-rule="evenodd" d="M1.40625 61.5625C1.40625 58.1969 4.13437 55.4688 7.5 55.4688C10.8656 55.4688 13.5938 58.1969 13.5938 61.5625C13.5938 63.7459 12.4669 65.5828 11.2419 66.9384C10.0131 68.2981 8.64 69.2247 8.04281 69.5966C7.88024 69.6988 7.69207 69.7531 7.5 69.7531C7.30793 69.7531 7.11976 69.6988 6.95719 69.5966C6.36031 69.2247 4.98687 68.2981 3.75813 66.9384C2.53312 65.5828 1.40625 63.7459 1.40625 61.5625ZM7.5 64.0625C8.16304 64.0625 8.79893 63.7991 9.26777 63.3303C9.73661 62.8614 10 62.2255 10 61.5625C10 60.8995 9.73661 60.2636 9.26777 59.7947C8.79893 59.3259 8.16304 59.0625 7.5 59.0625C6.83696 59.0625 6.20107 59.3259 5.73223 59.7947C5.26339 60.2636 5 60.8995 5 61.5625C5 62.2255 5.26339 62.8614 5.73223 63.3303C6.20107 63.7991 6.83696 64.0625 7.5 64.0625Z" fill="black"/>
</svg>
