<svg width="12" height="12" viewBox="0 0 12 12" fill="none" xmlns="http://www.w3.org/2000/svg">
<g clip-path="url(#clip0_1761_1926)">
<path d="M6.15836 3.55565L6.80956 4.86465C6.82402 4.89752 6.84688 4.92601 6.87585 4.94725C6.90481 4.96849 6.93885 4.98173 6.97456 4.98565L8.41996 5.20455C8.46116 5.21014 8.49993 5.22729 8.53179 5.25401C8.56364 5.28074 8.58727 5.31594 8.59993 5.35554C8.61259 5.39515 8.61378 5.43753 8.60334 5.47777C8.5929 5.51802 8.57127 5.55449 8.54096 5.58295L7.47396 6.59495C7.45787 6.62547 7.44946 6.65945 7.44946 6.69395C7.44946 6.72845 7.45787 6.76243 7.47396 6.79295L7.67856 8.22955C7.68681 8.27091 7.68301 8.31377 7.66759 8.35303C7.65217 8.39228 7.62579 8.42628 7.5916 8.45097C7.5574 8.47566 7.51683 8.49 7.47472 8.49228C7.4326 8.49457 7.39072 8.4847 7.35406 8.46385L6.06706 7.78295C6.03386 7.76801 5.99786 7.76029 5.96146 7.76029C5.92505 7.76029 5.88906 7.76801 5.85586 7.78295L4.57106 8.46385C4.53437 8.48503 4.49235 8.49516 4.45005 8.49304C4.40774 8.49092 4.36694 8.47663 4.33256 8.45189C4.29818 8.42715 4.27167 8.39301 4.25622 8.35357C4.24076 8.31412 4.23703 8.27106 4.24546 8.22955L4.48746 6.79295C4.49821 6.75944 4.50042 6.72378 4.49389 6.6892C4.48736 6.65462 4.47229 6.62222 4.45006 6.59495L3.38306 5.57525C3.35498 5.5465 3.33531 5.51061 3.32618 5.47148C3.31706 5.43234 3.31882 5.39145 3.33129 5.35325C3.34376 5.31505 3.36646 5.28099 3.39691 5.25478C3.42737 5.22856 3.46443 5.21119 3.50406 5.20455L4.94836 4.99225C4.98448 4.98882 5.01904 4.97579 5.04844 4.95452C5.07783 4.93324 5.10101 4.90449 5.11556 4.87125L5.76456 3.56225C5.78218 3.52532 5.80975 3.49404 5.84418 3.47193C5.8786 3.44981 5.9185 3.43773 5.95941 3.43704C6.00032 3.43636 6.04061 3.44709 6.07576 3.46804C6.1109 3.489 6.13951 3.51933 6.15836 3.55565Z" stroke="#FF9548" stroke-linecap="round" stroke-linejoin="round"/>
<path d="M6.00005 10.9498C7.31287 10.9498 8.57192 10.4283 9.50023 9.49998C10.4285 8.57168 10.95 7.31263 10.95 5.9998C10.95 4.68698 10.4285 3.42793 9.50023 2.49963C8.57192 1.57132 7.31287 1.0498 6.00005 1.0498C4.68723 1.0498 3.42818 1.57132 2.49987 2.49963C1.57157 3.42793 1.05005 4.68698 1.05005 5.9998C1.05005 7.31263 1.57157 8.57168 2.49987 9.49998C3.42818 10.4283 4.68723 10.9498 6.00005 10.9498Z" stroke="#FF9548" stroke-linecap="round" stroke-linejoin="round"/>
</g>
<defs>
<clipPath id="clip0_1761_1926">
<rect width="12" height="12" fill="white"/>
</clipPath>
</defs>
</svg>
