<svg width="51" height="37" viewBox="0 0 51 37" fill="none" xmlns="http://www.w3.org/2000/svg">
<g clip-path="url(#clip0_2152_1990)">
<path d="M16.7643 0.107414C13.3079 0.497916 9.7618 1.94277 7.12215 4.03195C6.09618 4.84224 4.47254 6.48235 3.75536 7.42931C-0.468082 13.0428 -1.18527 20.2866 1.89266 26.5248C4.75145 32.3433 10.4491 36.2385 17.0233 36.8926C18.3481 37.0293 32.672 37.0293 33.9669 36.9024C39.7741 36.3069 44.894 33.2317 48.0616 28.4285C48.729 27.4132 49.6454 25.5095 50.0438 24.2892C52.046 18.3048 50.8307 11.7736 46.8464 6.93142C46.0495 5.96493 44.3661 4.37364 43.4198 3.6805C40.6805 1.69871 37.4532 0.458865 34.1462 0.107414C32.9907 -0.0194987 17.8501 -0.0194987 16.7643 0.107414ZM30.2714 10.3093C30.4507 10.4557 30.62 10.7193 30.6897 10.9634C31.0184 12.1544 31.7755 12.9549 32.9011 13.2868C33.8374 13.5699 34.0764 13.7945 34.1462 14.4291C34.186 14.8977 34.1661 14.9562 33.8573 15.2589C33.6282 15.4736 33.3891 15.6103 33.1202 15.6494C32.1938 15.7958 31.1778 16.6744 30.8292 17.6409C30.7395 17.8947 30.61 18.2364 30.5602 18.3829C30.4307 18.7246 30.0124 18.9393 29.4944 18.9393C28.8968 18.9393 28.5581 18.6074 28.2891 17.7483C28.1098 17.1626 27.9903 16.9673 27.5022 16.4889C27.0042 16.0106 26.8249 15.8934 26.1973 15.7079C25.7889 15.5908 25.3606 15.3955 25.2411 15.2784C24.9024 14.9465 24.8427 14.4291 25.0718 13.9897C25.2411 13.6578 25.3507 13.5895 26.028 13.3649C27.3628 12.9256 28.0302 12.2813 28.3589 11.1C28.5681 10.3678 28.9266 10.0554 29.5343 10.0554C29.853 10.0554 30.0423 10.1238 30.2714 10.3093ZM24.1255 15.4639C24.4044 15.6689 24.504 16.0301 24.3546 16.362C24.1952 16.733 24.0557 16.7916 23.2987 16.7916C22.97 16.7916 22.6114 16.8306 22.5118 16.8892C22.3923 16.9575 22.1632 17.4945 21.8145 18.5196C21.4659 19.5349 21.2169 20.1206 21.0774 20.228C20.9081 20.3647 20.6591 20.4037 19.7526 20.4037C18.8761 20.4037 18.6071 20.433 18.4876 20.5599C18.3581 20.6771 18.3282 20.9602 18.3282 21.9755C18.3282 22.6784 18.378 23.3325 18.4278 23.4399C18.5772 23.7035 18.7964 23.6742 18.8661 23.3715C18.9059 23.2349 19.145 22.9127 19.404 22.6589C20.2208 21.8583 21.3962 21.6533 22.3823 22.1415C22.8206 22.366 23.4681 23.0201 23.6075 23.3911L23.7071 23.6254H25.5001H27.2931L27.4823 23.2544C28.06 22.1512 29.3848 21.624 30.5901 22.0145C31.1778 22.2098 32.0245 22.9517 32.1341 23.3715C32.2038 23.6742 32.4229 23.7035 32.5723 23.4399C32.6222 23.3325 32.672 22.6784 32.672 21.9755C32.672 20.5111 32.6222 20.4037 31.9249 20.4037C31.3372 20.4037 31.0085 20.2378 30.8889 19.8961C30.7395 19.4958 30.9089 19.1541 31.3272 18.9882C31.9847 18.7148 32.911 18.9003 33.4987 19.4177C34.1063 19.9546 34.1661 20.1694 34.1661 22.0341C34.1661 23.4887 34.1462 23.7035 33.9569 24.0842C33.6979 24.6016 33.2696 24.9433 32.652 25.0995C32.3034 25.1971 32.1739 25.285 32.1241 25.4509C32.0345 25.8219 31.3671 26.4663 30.8292 26.7103C29.863 27.1594 28.6677 26.9446 27.9405 26.2027C27.7114 25.9684 27.4624 25.6462 27.3927 25.49L27.2731 25.1874H25.5001H23.727L23.5079 25.6267C22.9501 26.7591 21.3763 27.2668 20.171 26.7103C19.6331 26.4663 18.9657 25.8219 18.8761 25.4509C18.8263 25.285 18.6968 25.1971 18.3481 25.0995C17.7306 24.9433 17.3022 24.6016 17.0432 24.0842C16.854 23.7035 16.8341 23.4887 16.8341 22.0243C16.8341 20.6087 16.854 20.3451 17.0233 20.023C17.4516 19.2029 18.2186 18.8417 19.5235 18.8417H20.1013L20.5196 17.6214C21.0077 16.1961 21.2169 15.8641 21.8046 15.5517C22.1632 15.3663 22.3923 15.3272 23.0995 15.3272C23.6473 15.337 24.0159 15.376 24.1255 15.4639Z" fill="black"/>
<path d="M29.2555 12.7987C28.9766 13.2771 28.3391 13.9019 27.7613 14.2729L27.3828 14.5169L27.8908 14.8391C28.4586 15.1905 29.126 15.9032 29.365 16.3816L29.5244 16.694L29.8033 16.2547C30.152 15.708 30.7396 15.1222 31.2975 14.7805C31.6859 14.5365 31.7059 14.5072 31.5365 14.4095C31.0285 14.1167 30.3312 13.5016 30.0523 13.1111C29.873 12.8671 29.6838 12.6035 29.624 12.5254C29.5344 12.3985 29.4746 12.4473 29.2555 12.7987Z" fill="black"/>
<path d="M20.9478 23.4496C20.0713 23.6742 19.9518 24.9433 20.7686 25.3338C21.177 25.5193 21.3463 25.5193 21.7148 25.3338C22.0336 25.1678 22.3125 24.7383 22.3125 24.4063C22.3125 23.7523 21.6252 23.2739 20.9478 23.4496Z" fill="black"/>
<path d="M29.4047 23.4496C29.0461 23.5472 28.6875 24.0061 28.6875 24.3868C28.6875 24.7383 28.9664 25.1678 29.2951 25.3435C29.9824 25.6852 30.7793 25.2069 30.7793 24.4454C30.7793 23.723 30.1418 23.2544 29.4047 23.4496Z" fill="black"/>
</g>
<defs>
<clipPath id="clip0_2152_1990">
<rect width="51" height="37" fill="white"/>
</clipPath>
</defs>
</svg>
