<svg width="51" height="37" viewBox="0 0 51 37" fill="none" xmlns="http://www.w3.org/2000/svg">
<g clip-path="url(#clip0_2152_1986)">
<path d="M16.7643 0.107414C13.3079 0.497916 9.7618 1.94277 7.12215 4.03195C6.09618 4.84224 4.47254 6.48235 3.75536 7.42931C-0.468082 13.0428 -1.18527 20.2866 1.89266 26.5248C4.75145 32.3433 10.4491 36.2385 17.0233 36.8926C18.3481 37.0293 32.672 37.0293 33.9669 36.9024C39.7741 36.3069 44.894 33.2317 48.0616 28.4285C48.729 27.4132 49.6454 25.5095 50.0438 24.2892C52.036 18.3048 50.8307 11.7736 46.8464 6.93142C46.0495 5.96493 44.3661 4.37364 43.4198 3.6805C40.6805 1.69871 37.4532 0.458865 34.1462 0.107414C32.9907 -0.0194987 17.8501 -0.0194987 16.7643 0.107414ZM27.5819 10.9341C28.4386 11.1684 29.5243 11.6858 30.2016 12.1641C31.1081 12.828 32.1141 13.98 32.6022 14.9562C33.2198 16.1473 33.3792 16.7916 33.4389 18.2072C33.4788 19.1736 33.4489 19.5251 33.2796 20.228C32.7018 22.6101 31.2276 24.4356 29.0063 25.5291C27.0042 26.5053 24.3347 26.5736 22.3624 25.6853L21.7647 25.4217L20.7188 25.7536C19.2845 26.2027 18.7764 26.2515 18.3282 25.9488C17.5513 25.4314 17.5014 24.9433 18.0393 23.1177L18.3481 22.0731L18.0991 21.4581C17.5413 20.062 17.372 18.3145 17.6807 16.9087C18.3481 13.775 20.9679 11.3343 24.2848 10.7388C25.0319 10.6021 26.7552 10.7095 27.5819 10.9341Z" fill="black"/>
<path d="M23.9063 12.3496C23.6075 12.4278 22.9799 12.6816 22.5217 12.9061C21.0475 13.6285 19.9418 14.9074 19.3641 16.5475C19.125 17.2212 19.0852 17.4847 19.0852 18.4512C19.0852 19.6911 19.1749 20.0816 19.6829 21.2043L20.0315 21.9657L19.6928 23.0103C19.2545 24.3478 19.1948 24.6016 19.3143 24.6016C19.3741 24.6016 19.9717 24.4259 20.6491 24.2111L21.8842 23.8109L22.6114 24.1526C23.6672 24.6504 24.6036 24.8359 25.8387 24.7676C27.0241 24.709 27.8807 24.4747 28.7672 23.9475C30.1717 23.108 31.0682 22.0243 31.6161 20.5111C31.885 19.7496 31.9149 19.5544 31.9149 18.5C31.9149 17.475 31.875 17.2309 31.636 16.5475C30.9586 14.6146 29.584 13.238 27.6118 12.5156C27.054 12.3106 26.7352 12.2618 25.6993 12.2423C24.8127 12.213 24.2948 12.2423 23.9063 12.3496Z" fill="black"/>
</g>
<defs>
<clipPath id="clip0_2152_1986">
<rect width="51" height="37" fill="white"/>
</clipPath>
</defs>
</svg>
