<svg width="29" height="29" viewBox="0 0 29 29" fill="none" xmlns="http://www.w3.org/2000/svg">
<path d="M11.7379 10.7175H10.3586C9.9536 10.6964 9.55285 10.8084 9.2175 11.0364C8.88216 11.2644 8.63067 11.596 8.50145 11.9804L7.07145 16.2889H4.28573C3.79318 16.2889 3.32081 16.4846 2.97253 16.8329C2.62425 17.1812 2.42859 17.6535 2.42859 18.1461V21.8604C2.42859 22.3529 2.62425 22.8252 2.97253 23.1736C3.32081 23.5218 3.79318 23.7176 4.28573 23.7176H5.2143" stroke="black" stroke-width="2" stroke-linecap="round" stroke-linejoin="round"/>
<path d="M23.7858 16.2891H24.7143C25.2069 16.2891 25.6793 16.4848 26.0275 16.8331C26.3757 17.1814 26.5715 17.6537 26.5715 18.1463V21.8606C26.5715 22.3531 26.3757 22.8254 26.0275 23.1738C25.6793 23.522 25.2069 23.7177 24.7143 23.7177H23.7858" stroke="black" stroke-width="2" stroke-linecap="round" stroke-linejoin="round"/>
<path d="M20.998 26.5033C19.4585 26.5033 18.2104 25.2551 18.2104 23.7155C18.2104 22.1759 19.4585 20.9279 20.998 20.9279C22.5377 20.9279 23.7857 22.1759 23.7857 23.7155C23.7857 25.2551 22.5377 26.5033 20.998 26.5033Z" stroke="black" stroke-width="2" stroke-linecap="round" stroke-linejoin="round"/>
<path d="M7.99807 26.5033C6.45848 26.5033 5.21039 25.2553 5.21039 23.7155C5.21039 22.1759 6.45848 20.9279 7.99807 20.9279C9.53766 20.9279 10.7858 22.1759 10.7858 23.7155C10.7858 25.2553 9.53766 26.5033 7.99807 26.5033Z" stroke="black" stroke-width="2" stroke-linecap="round" stroke-linejoin="round"/>
<path d="M18.2107 23.7177H10.786" stroke="black" stroke-width="2" stroke-linecap="round" stroke-linejoin="round"/>
<path d="M15.2725 8.87436C14.6208 8.76098 14.6208 7.82541 15.2725 7.71203C17.6336 7.30125 19.5115 5.50287 20.024 3.16175L20.0633 2.98229C20.2042 2.33817 21.1215 2.33416 21.268 2.97702L21.3157 3.18616C21.8473 5.51624 23.7256 7.29943 26.0801 7.70906C26.7353 7.82301 26.7353 8.76338 26.0801 8.87733C23.7256 9.28696 21.8473 11.0702 21.3157 13.4002L21.268 13.6094C21.1215 14.2522 20.2042 14.2482 20.0633 13.6041L20.024 13.4246C19.5115 11.0835 17.6336 9.28514 15.2725 8.87436Z" stroke="black" stroke-width="2" stroke-linecap="round" stroke-linejoin="round"/>
</svg>
