<svg width="111" height="22" viewBox="0 0 111 22" fill="none" xmlns="http://www.w3.org/2000/svg">
<rect width="111" height="22" rx="11" fill="#E9F8DF"/>
<path d="M17.2363 15.0938C16.8848 15.0938 16.6094 14.8418 16.6094 14.5254C16.6094 14.373 16.6562 14.2383 16.7676 14.0801L19.123 10.7637V10.7227L16.832 7.5293C16.7031 7.35938 16.6621 7.22461 16.6621 7.06641C16.6621 6.71484 16.9551 6.45117 17.3359 6.45117C17.5879 6.45117 17.7402 6.55078 17.9277 6.82617L19.9961 9.81445H20.043L22.1582 6.79102C22.3281 6.54492 22.457 6.45117 22.7031 6.45117C23.0547 6.45117 23.3477 6.70312 23.3477 7.01367C23.3477 7.16602 23.3008 7.30078 23.1895 7.45898L20.7695 10.7695V10.8047L23.1133 14.0508C23.2188 14.1914 23.2715 14.3379 23.2715 14.4961C23.2715 14.8359 22.9844 15.0938 22.6211 15.0938C22.375 15.0938 22.2227 15 22.0527 14.7598L19.9434 11.7773H19.9023L17.793 14.7539C17.6113 15.0117 17.4824 15.0938 17.2363 15.0938ZM26.998 15.1172C25.2344 15.1172 24.0742 13.9043 24.0742 11.918C24.0742 9.9375 25.2402 8.72461 26.998 8.72461C28.7559 8.72461 29.9219 9.9375 29.9219 11.918C29.9219 13.9043 28.7617 15.1172 26.998 15.1172ZM26.998 14.0742C27.9941 14.0742 28.6328 13.2891 28.6328 11.918C28.6328 10.5527 27.9883 9.76758 26.998 9.76758C26.0078 9.76758 25.3633 10.5527 25.3633 11.918C25.3633 13.2891 26.0078 14.0742 26.998 14.0742ZM31.6504 17.1855C31.2754 17.1855 31.0176 16.9277 31.0176 16.5117V9.375C31.0176 8.9707 31.2695 8.72461 31.627 8.72461C31.9844 8.72461 32.2422 8.9707 32.2422 9.375V9.89648H32.2656C32.6289 9.1875 33.3379 8.73633 34.2285 8.73633C35.793 8.73633 36.8242 9.9668 36.8242 11.918C36.8242 13.8691 35.7988 15.1055 34.252 15.1055C33.3672 15.1055 32.6641 14.6719 32.3125 13.9863H32.2832V16.5117C32.2832 16.9277 32.0195 17.1855 31.6504 17.1855ZM33.8945 14.0332C34.8965 14.0332 35.5234 13.2129 35.5234 11.918C35.5234 10.6289 34.8965 9.80273 33.8945 9.80273C32.9277 9.80273 32.2773 10.6465 32.2773 11.918C32.2773 13.2012 32.9219 14.0332 33.8945 14.0332ZM40.5684 15.1172C38.8047 15.1172 37.6445 13.9043 37.6445 11.918C37.6445 9.9375 38.8105 8.72461 40.5684 8.72461C42.3262 8.72461 43.4922 9.9375 43.4922 11.918C43.4922 13.9043 42.332 15.1172 40.5684 15.1172ZM40.5684 14.0742C41.5645 14.0742 42.2031 13.2891 42.2031 11.918C42.2031 10.5527 41.5586 9.76758 40.5684 9.76758C39.5781 9.76758 38.9336 10.5527 38.9336 11.918C38.9336 13.2891 39.5781 14.0742 40.5684 14.0742ZM45.2383 15C44.8281 15 44.582 14.7422 44.582 14.3203V9.38672C44.582 8.98242 44.834 8.72461 45.209 8.72461C45.5898 8.72461 45.8418 8.98828 45.8418 9.38672V13.998H47.9102V9.38672C47.9102 8.98242 48.1621 8.72461 48.5371 8.72461C48.918 8.72461 49.1699 8.98828 49.1699 9.38672V13.998H51.2383V9.38672C51.2383 8.98242 51.4902 8.72461 51.8711 8.72461C52.2461 8.72461 52.498 8.98828 52.498 9.38672V14.3203C52.498 14.7422 52.2461 15 51.8418 15H45.2383ZM55.6738 15.1055C54.4668 15.1055 53.6172 14.3555 53.6172 13.248C53.6172 12.1699 54.4492 11.5078 55.9082 11.4258L57.6016 11.3262V10.8516C57.6016 10.166 57.1387 9.75586 56.3652 9.75586C55.7559 9.75586 55.3516 9.97266 55 10.5352C54.8711 10.7227 54.707 10.8047 54.4844 10.8047C54.168 10.8047 53.9395 10.5938 53.9395 10.2773C53.9395 10.1484 53.9746 10.0078 54.0508 9.86719C54.373 9.16992 55.3047 8.72461 56.4121 8.72461C57.9062 8.72461 58.8613 9.51562 58.8613 10.752V14.4727C58.8613 14.8711 58.6094 15.1113 58.252 15.1113C57.9004 15.1113 57.6602 14.8828 57.6484 14.5078V13.9863H57.6191C57.2617 14.6719 56.4766 15.1055 55.6738 15.1055ZM56.0195 14.1035C56.9043 14.1035 57.6016 13.4941 57.6016 12.6914V12.2051L56.0781 12.2988C55.3223 12.3516 54.8945 12.6855 54.8945 13.2129C54.8945 13.752 55.3457 14.1035 56.0195 14.1035ZM64.2754 15.1113C63.9004 15.1113 63.6484 14.877 63.6484 14.5078V12.8848H62.6816L61.3281 14.7363C61.1113 15.0352 60.9824 15.1113 60.7188 15.1113C60.3789 15.1113 60.1445 14.8828 60.1445 14.6016C60.1445 14.4434 60.1914 14.3086 60.3145 14.1621L61.4629 12.6387C60.6016 12.3984 60.0859 11.7598 60.0859 10.916C60.0859 9.63281 61.0176 8.83594 62.4648 8.83594H64.2402C64.6445 8.83594 64.8906 9.09375 64.8906 9.52148V14.5078C64.8906 14.877 64.6504 15.1113 64.2754 15.1113ZM63.6426 11.9121V9.83203H62.5293C61.8086 9.83203 61.3457 10.2422 61.3457 10.9102C61.3457 11.4961 61.8145 11.9121 62.5293 11.9121H63.6426ZM69.3438 15C68.9336 15 68.6875 14.7422 68.6875 14.3203V9.33984C68.6875 8.96484 68.9336 8.72461 69.3086 8.72461C69.6895 8.72461 69.9473 8.96484 69.9473 9.33984V13.998H72.6367V9.33984C72.6367 8.96484 72.8828 8.72461 73.2578 8.72461C73.6387 8.72461 73.8965 8.96484 73.8965 9.33984V13.998H74.2598C74.6348 13.998 74.8691 14.25 74.8691 14.6543V16.1602C74.8691 16.5117 74.6406 16.7402 74.2832 16.7402C73.9199 16.7402 73.6855 16.5117 73.6855 16.1602V15H69.3438ZM78.3848 15.1172C76.5273 15.1172 75.4375 13.9395 75.4375 11.9473C75.4375 9.99023 76.5508 8.72461 78.2969 8.72461C79.9375 8.72461 81.0684 9.9082 81.0684 11.5898C81.0684 12 80.834 12.2344 80.4414 12.2344H76.7148V12.2637C76.7148 13.3887 77.3477 14.0918 78.3555 14.0918C79.0469 14.0918 79.4805 13.8516 79.9492 13.2129C80.084 13.0547 80.2129 12.9902 80.3945 12.9902C80.6992 12.9902 80.9219 13.1895 80.9219 13.5059C80.9219 13.6055 80.8867 13.7227 80.834 13.8457C80.4297 14.6543 79.5332 15.1172 78.3848 15.1172ZM76.7207 11.3496H79.8027C79.7734 10.3828 79.1699 9.74414 78.291 9.74414C77.418 9.74414 76.7852 10.3887 76.7207 11.3496ZM82.7793 15.1113C82.3984 15.1113 82.1523 14.8477 82.1523 14.4434V9.39844C82.1523 8.98828 82.3984 8.72461 82.7793 8.72461C83.1602 8.72461 83.4121 8.98828 83.4121 9.39844V11.3203H86.2012V9.39844C86.2012 8.98828 86.4473 8.72461 86.834 8.72461C87.2148 8.72461 87.4609 8.98828 87.4609 9.39844V14.4434C87.4609 14.8477 87.2148 15.1113 86.834 15.1113C86.4473 15.1113 86.2012 14.8477 86.2012 14.4434V12.3164H83.4121V14.4434C83.4121 14.8477 83.1602 15.1113 82.7793 15.1113ZM90.6426 15.1055C89.4355 15.1055 88.5859 14.3555 88.5859 13.248C88.5859 12.1699 89.418 11.5078 90.877 11.4258L92.5703 11.3262V10.8516C92.5703 10.166 92.1074 9.75586 91.334 9.75586C90.7246 9.75586 90.3203 9.97266 89.9688 10.5352C89.8398 10.7227 89.6758 10.8047 89.4531 10.8047C89.1367 10.8047 88.9082 10.5938 88.9082 10.2773C88.9082 10.1484 88.9434 10.0078 89.0195 9.86719C89.3418 9.16992 90.2734 8.72461 91.3809 8.72461C92.875 8.72461 93.8301 9.51562 93.8301 10.752V14.4727C93.8301 14.8711 93.5781 15.1113 93.2207 15.1113C92.8691 15.1113 92.6289 14.8828 92.6172 14.5078V13.9863H92.5879C92.2305 14.6719 91.4453 15.1055 90.6426 15.1055ZM90.9883 14.1035C91.873 14.1035 92.5703 13.4941 92.5703 12.6914V12.2051L91.0469 12.2988C90.291 12.3516 89.8633 12.6855 89.8633 13.2129C89.8633 13.752 90.3145 14.1035 90.9883 14.1035Z" fill="#5BC825"/>
</svg>
