<svg width="51" height="37" viewBox="0 0 51 37" fill="none" xmlns="http://www.w3.org/2000/svg">
<g clip-path="url(#clip0_2152_1982)">
<path d="M16.7643 0.107414C13.3079 0.497916 9.7618 1.94277 7.12215 4.03195C6.09618 4.84224 4.47254 6.48235 3.75536 7.42931C-0.468082 13.0428 -1.18527 20.2866 1.89266 26.5248C4.75145 32.3433 10.4491 36.2385 17.0233 36.8926C18.3481 37.0293 32.672 37.0293 33.9669 36.9024C39.7741 36.3069 44.894 33.2317 48.0616 28.4285C48.729 27.4132 49.6454 25.5095 50.0438 24.2892C52.046 18.3048 50.8307 11.7736 46.8464 6.93142C46.0495 5.96493 44.3661 4.37364 43.4198 3.6805C40.6805 1.69871 37.4532 0.458865 34.1462 0.107414C32.9907 -0.0194987 17.8501 -0.0194987 16.7643 0.107414ZM29.4745 10.9926C31.636 11.5589 33.4888 12.0763 33.5983 12.1544C33.9171 12.3692 34.1661 12.8085 34.1661 13.1599C34.1661 13.4918 31.3472 23.8987 31.1679 24.2306C31.0085 24.5333 30.4606 24.7969 30.0323 24.7969C29.8132 24.7871 27.9106 24.338 25.7989 23.7816C22.3026 22.8541 21.954 22.7467 21.705 22.4734C21.2169 21.9462 21.2368 21.8291 22.3026 17.9143C22.8505 15.9325 23.2788 14.2924 23.2688 14.2728C23.229 14.2338 18.5374 15.4834 18.4677 15.5517C18.4179 15.6006 20.9778 25.1288 21.1073 25.3436C21.1472 25.4119 21.7348 25.2947 22.9102 24.9823C23.8665 24.7188 24.7331 24.5137 24.8227 24.504C24.9124 24.504 25.1116 24.6114 25.261 24.7285C25.5897 25.0116 25.6296 25.4998 25.3407 25.7731C25.2212 25.8903 24.3645 26.1539 23.0597 26.4955C20.7886 27.0911 20.5595 27.1008 20.0614 26.642C19.7626 26.3686 19.7626 26.3784 18.1788 20.5502C16.6946 15.1417 16.6847 15.0539 17.1927 14.5364C17.5214 14.2045 17.6708 14.1557 20.8583 13.3259C22.2229 12.9647 23.4382 12.6327 23.5577 12.5937C23.737 12.5254 23.8266 12.3301 24.0059 11.6955C24.1255 11.2465 24.3048 10.7583 24.3944 10.6021C24.5339 10.3581 25.1714 9.96757 25.4503 9.95781C25.51 9.95781 27.3229 10.4264 29.4745 10.9926Z" fill="black"/>
<path d="M25.5001 12.0177C25.4304 12.3008 24.8227 14.5364 24.1554 16.977C23.478 19.4274 22.9401 21.4385 22.9501 21.4483C23.0597 21.5654 29.8132 23.2446 29.8729 23.1763C30.0224 23.0201 32.5923 13.4528 32.5026 13.3747C32.4628 13.3356 30.9487 12.9158 29.1358 12.4472C27.3329 11.9786 25.7989 11.5686 25.7391 11.5491C25.6694 11.5198 25.5698 11.715 25.5001 12.0177Z" fill="black"/>
</g>
<defs>
<clipPath id="clip0_2152_1982">
<rect width="51" height="37" fill="white"/>
</clipPath>
</defs>
</svg>
