<svg width="51" height="37" viewBox="0 0 51 37" fill="none" xmlns="http://www.w3.org/2000/svg">
<g clip-path="url(#clip0_2152_1912)">
<path d="M16.5053 0.596782C12.4611 1.08415 8.89513 2.78495 5.98653 5.60968C2.53009 8.97151 0.707236 13.0992 0.527939 17.9032C0.209189 27.014 6.79337 34.8815 15.8877 36.254C17.3619 36.4729 33.6381 36.4729 35.1123 36.254C39.2361 35.6374 42.9416 33.668 45.7506 30.6245C47.7129 28.5059 49.1871 25.7906 49.9143 23.0057C50.7809 19.6239 50.6813 16.2919 49.6055 12.8804C49.1871 11.5476 48.0715 9.30968 47.2447 8.15592C46.418 7.0121 44.6649 5.17205 43.5791 4.32662C41.318 2.56614 38.6385 1.3527 35.7399 0.775814C34.6342 0.556997 34.4748 0.556997 25.8984 0.537104C21.1072 0.527158 16.8738 0.556997 16.5053 0.596782ZM28.1895 9.7871C29.7234 10.2944 30.8092 10.9608 31.9348 12.0747C33.1002 13.2484 33.8373 14.4917 34.2656 16.0333C34.435 16.6301 34.4649 17.0578 34.4649 18.5199C34.4649 20.1411 34.4449 20.3401 34.2059 21.1059C33.2297 24.1893 30.849 26.4868 27.8209 27.2626C26.7152 27.5411 24.1553 27.5312 23.1094 27.2527C20.6092 26.5664 18.4676 24.786 17.332 22.4288C16.5949 20.8871 16.5152 20.4694 16.5551 18.2514C16.585 16.4312 16.5949 16.3317 16.9037 15.4863C17.7504 13.1091 19.7426 10.9906 21.9838 10.0954C23.3983 9.5285 23.9063 9.44893 25.6992 9.47877C27.1834 9.50861 27.4225 9.53845 28.1895 9.7871Z" fill="black"/>
<path d="M24.5239 10.9409C23.6174 11.0702 22.9501 11.279 22.0536 11.7266C20.0913 12.7212 18.6669 14.5215 18.119 16.7097C17.8401 17.8137 17.8899 19.6936 18.2286 20.6882C18.5174 21.5436 19.145 22.7272 19.5633 23.2245L19.912 23.6223L20.2108 23.2543C20.9579 22.3691 22.5516 21.4341 23.8764 21.1258C24.743 20.9169 26.2571 20.9169 27.1237 21.1258C28.4286 21.4341 29.9825 22.3293 30.7794 23.2344C31.1479 23.6621 31.1878 23.6422 31.8153 22.6874C32.662 21.4142 32.9708 20.4395 33.0405 18.7984C33.1102 17.2866 32.911 16.3218 32.2735 15.0686C30.8391 12.214 27.6516 10.5231 24.5239 10.9409ZM27.2133 13.0097C28.06 13.4175 28.8768 14.2828 29.1956 15.0884C29.3649 15.5261 29.4247 15.8742 29.4247 16.5704C29.4346 17.4159 29.4147 17.5153 29.0561 18.2215C28.6278 19.1067 27.9405 19.7831 27.0938 20.171C26.6256 20.3898 26.4065 20.4296 25.5499 20.4296C24.7331 20.4296 24.4442 20.3898 23.9561 20.2008C23.229 19.9124 22.2628 18.9874 21.9241 18.2513C21.2467 16.7892 21.4958 15.0884 22.5516 13.9446C23.0596 13.3876 23.4083 13.1489 24.0956 12.8605C24.5737 12.6616 24.7928 12.6317 25.5997 12.6516C26.4464 12.6815 26.6256 12.7212 27.2133 13.0097Z" fill="black"/>
<path d="M24.4441 14.3624C23.8166 14.6508 23.3484 15.2078 23.1492 15.8941C22.5217 18.0226 24.9422 19.793 26.8248 18.5995C28.1595 17.7541 28.3388 15.9538 27.2133 14.8299C26.4662 14.0839 25.4203 13.9049 24.4441 14.3624Z" fill="black"/>
<path d="M24.0158 22.6376C23.1692 22.8664 22.203 23.4234 21.5754 24.0599L20.9977 24.6468L21.426 24.8954C22.8703 25.7409 23.8565 26.0094 25.5498 26.0094C27.0041 26.0094 27.7711 25.8304 28.9864 25.2137C30.1119 24.6368 30.092 24.6965 29.3649 24.0003C28.6776 23.3438 27.811 22.8564 26.9244 22.6277C26.2073 22.4387 24.7231 22.4486 24.0158 22.6376Z" fill="black"/>
</g>
<defs>
<clipPath id="clip0_2152_1912">
<rect width="51" height="37" fill="white"/>
</clipPath>
</defs>
</svg>
