<svg width="14" height="16" viewBox="0 0 14 16" fill="none" xmlns="http://www.w3.org/2000/svg">
<path fill-rule="evenodd" clip-rule="evenodd" d="M0.5 7C0.5 3.41 3.41 0.5 7 0.5C10.59 0.5 13.5 3.41 13.5 7C13.5 9.329 12.298 11.2883 10.9913 12.7343C9.68067 14.1847 8.216 15.173 7.579 15.5697C7.40559 15.6788 7.20488 15.7366 7 15.7366C6.79512 15.7366 6.59441 15.6788 6.421 15.5697C5.78433 15.173 4.31933 14.1847 3.00867 12.7343C1.702 11.2883 0.5 9.329 0.5 7ZM7 9.66667C7.70724 9.66667 8.38552 9.38572 8.88562 8.88562C9.38572 8.38552 9.66667 7.70724 9.66667 7C9.66667 6.29276 9.38572 5.61448 8.88562 5.11438C8.38552 4.61428 7.70724 4.33333 7 4.33333C6.29276 4.33333 5.61448 4.61428 5.11438 5.11438C4.61428 5.61448 4.33333 6.29276 4.33333 7C4.33333 7.70724 4.61428 8.38552 5.11438 8.88562C5.61448 9.38572 6.29276 9.66667 7 9.66667Z" fill="black"/>
</svg>
