<svg width="16" height="16" viewBox="0 0 16 16" fill="none" xmlns="http://www.w3.org/2000/svg">
<path d="M-0.0138512 8.01386C-0.0138512 10.1356 0.829004 12.1704 2.32929 13.6707C3.82959 15.171 5.86442 16.0139 7.98615 16.0139C10.1079 16.0139 12.1427 15.171 13.643 13.6707C15.1433 12.1704 15.9861 10.1356 15.9861 8.01386C15.9861 5.89212 15.1433 3.85729 13.643 2.357C12.1427 0.85671 10.1079 0.013855 7.98615 0.013855C5.86442 0.013855 3.82959 0.85671 2.32929 2.357C0.829004 3.85729 -0.0138512 5.89212 -0.0138512 8.01386Z" fill="#DDDDDD"/>
<path fill-rule="evenodd" clip-rule="evenodd" d="M6.16786 4.9834C6.00712 4.82265 5.7891 4.73235 5.56177 4.73235C5.33444 4.73235 5.11643 4.82265 4.95568 4.9834C4.79493 5.14414 4.70463 5.36216 4.70463 5.58949C4.70463 5.81682 4.79493 6.03484 4.95568 6.19558L6.77395 8.01385L4.95568 9.83213C4.79493 9.99287 4.70463 10.2109 4.70463 10.4382C4.70463 10.6655 4.79493 10.8836 4.95568 11.0443C5.11643 11.2051 5.33444 11.2954 5.56177 11.2954C5.7891 11.2954 6.00712 11.2051 6.16786 11.0443L7.98614 9.22604L9.80441 11.0443C9.96516 11.2051 10.1832 11.2954 10.4105 11.2954C10.6378 11.2954 10.8558 11.2051 11.0166 11.0443C11.1773 10.8836 11.2676 10.6655 11.2676 10.4382C11.2676 10.2109 11.1773 9.99287 11.0166 9.83213L9.19832 8.01385L11.0166 6.19558C11.1773 6.03484 11.2676 5.81682 11.2676 5.58949C11.2676 5.36216 11.1773 5.14414 11.0166 4.9834C10.8558 4.82265 10.6378 4.73235 10.4105 4.73235C10.1832 4.73235 9.96516 4.82265 9.80441 4.9834L7.98614 6.80167L6.16786 4.9834Z" fill="black"/>
</svg>
