<svg width="47" height="46" viewBox="0 0 47 46" fill="none" xmlns="http://www.w3.org/2000/svg">
<circle cx="23.5" cy="23" r="23" fill="black"/>
<path d="M29.1823 24.0395C29.1823 22.4785 29.9189 21.0091 31.1696 20.0752C31.3995 19.8948 31.4322 19.5589 31.2413 19.3376C30.2997 18.2859 28.974 17.6581 27.5638 17.5962C25.8326 17.4221 24.1834 18.6206 23.3024 18.6206C22.4214 18.6206 20.9874 17.5962 19.5532 17.5962C17.6214 17.6545 15.8644 18.7298 14.9333 20.4234C12.9666 23.8448 14.4314 28.9052 16.347 31.6915C17.2791 33.0539 18.3957 34.57 19.8708 34.5187C21.3459 34.4674 21.8171 33.607 23.5278 33.607C25.2385 33.607 25.7199 34.5187 27.2155 34.488C28.7111 34.4573 29.6945 33.0846 30.6369 31.7325C31.2136 30.8772 31.6848 29.9554 32.0403 28.9872C32.1208 28.7468 32.0171 28.4834 31.7944 28.3623C30.1855 27.5215 29.1784 25.8549 29.1823 24.0395Z" fill="white"/>
<path d="M26.5394 14.6972C27.2889 13.806 27.7277 12.6948 27.7892 11.5319C27.7911 11.3748 27.7237 11.2249 27.6048 11.1222C27.486 11.0211 27.3276 10.9796 27.1745 11.0095C26.0614 11.2687 25.0558 11.8663 24.2961 12.7202C23.5284 13.587 23.077 14.6883 23.0156 15.8445C23.0159 15.988 23.0752 16.1251 23.1795 16.2235C23.2857 16.3269 23.4314 16.3792 23.579 16.367C24.7411 16.2038 25.7986 15.6074 26.5394 14.6972Z" fill="white"/>
</svg>
