<svg width="24" height="25" viewBox="0 0 24 25" fill="none" xmlns="http://www.w3.org/2000/svg">
<rect y="0.5" width="24" height="24" rx="12" fill="#F3F3F3"/>
<path d="M7.50833 15.195H7.05916C6.56306 15.195 6.16083 14.7929 6.16083 14.2967V12.5C6.16083 12.0039 6.56306 11.6017 7.05916 11.6017H7.50833L8.62254 9.00202C8.76407 8.67174 9.08884 8.45752 9.44818 8.45752H12.7551C13.1145 8.45752 13.4393 8.67174 13.5809 9.00202L14.695 11.6017H16.9408C17.437 11.6017 17.8392 12.0039 17.8392 12.5V14.2967C17.8392 14.7929 17.437 15.195 16.9408 15.195H16.4917" stroke="#5E5E5E" stroke-width="1.2" stroke-linecap="round" stroke-linejoin="round"/>
<path d="M15.1432 16.5425C14.3985 16.5425 13.7947 15.9389 13.7947 15.1942C13.7947 14.4493 14.3985 13.8457 15.1432 13.8457C15.8879 13.8457 16.4917 14.4493 16.4917 15.1942C16.4917 15.9389 15.8879 16.5425 15.1432 16.5425Z" stroke="#5E5E5E" stroke-width="1.2" stroke-linecap="round" stroke-linejoin="round"/>
<path d="M8.85492 16.5425C8.11013 16.5425 7.50641 15.9389 7.50641 15.1942C7.50641 14.4494 8.11013 13.8457 8.85492 13.8457C9.59971 13.8457 10.2033 14.4494 10.2033 15.1942C10.2033 15.9389 9.59962 16.5425 8.85492 16.5425Z" stroke="#5E5E5E" stroke-width="1.2" stroke-linecap="round" stroke-linejoin="round"/>
<path d="M13.7948 15.1948H10.2033" stroke="#5E5E5E" stroke-width="1.2" stroke-linecap="round" stroke-linejoin="round"/>
<path d="M7.50833 11.6016H14.695" stroke="#5E5E5E" stroke-width="1.2" stroke-linecap="round" stroke-linejoin="round"/>
</svg>
