<svg width="9" height="16" viewBox="0 0 9 16" fill="none" xmlns="http://www.w3.org/2000/svg">
<path d="M0 7.99577C0 8.14257 0.0265226 8.27809 0.0795678 8.40232C0.138507 8.52654 0.226916 8.64512 0.344794 8.75805L7.23183 15.212C7.43222 15.404 7.67387 15.5 7.95678 15.5C8.15128 15.5 8.32515 15.4548 8.47839 15.3645C8.63752 15.2798 8.76424 15.1612 8.85855 15.0088C8.95285 14.8619 9 14.6982 9 14.5175C9 14.2465 8.89096 14.0065 8.67289 13.7976L2.4666 7.99577L8.67289 2.19396C8.89096 1.98504 9 1.74788 9 1.4825C9 1.29616 8.95285 1.12959 8.85855 0.982778C8.76424 0.835968 8.63752 0.720215 8.47839 0.635517C8.32515 0.545172 8.15128 0.5 7.95678 0.5C7.67387 0.5 7.43222 0.593168 7.23183 0.779503L0.344794 7.23348C0.226916 7.34641 0.138507 7.46499 0.0795678 7.58922C0.0265226 7.71344 0 7.84896 0 7.99577Z" fill="black"/>
</svg>
