<svg width="12" height="12" viewBox="0 0 12 12" fill="none" xmlns="http://www.w3.org/2000/svg">
<g clip-path="url(#clip0_1761_1932)">
<path d="M10.955 1.7502H1.045C0.773986 1.74483 0.51188 1.84704 0.316036 2.03445C0.120192 2.22186 0.00655823 2.47921 0 2.7502L0 9.2502C0.00655823 9.52119 0.120192 9.77855 0.316036 9.96596C0.51188 10.1534 0.773986 10.2556 1.045 10.2502H10.955C11.226 10.2556 11.4881 10.1534 11.684 9.96596C11.8798 9.77855 11.9934 9.52119 12 9.2502V2.7502C11.9934 2.47921 11.8798 2.22186 11.684 2.03445C11.4881 1.84704 11.226 1.74483 10.955 1.7502ZM4.26 5.1052L3.26 7.1602C3.22997 7.22387 3.18262 7.2778 3.12338 7.31582C3.06414 7.35384 2.99539 7.37442 2.925 7.3752H2.595C2.5021 7.37573 2.41231 7.34176 2.34303 7.27987C2.27375 7.21798 2.22991 7.13257 2.22 7.0402L2.065 5.5002C2.06033 5.47014 2.04526 5.44266 2.02242 5.42256C1.99958 5.40246 1.97041 5.39101 1.94 5.3902H1.75C1.65054 5.3902 1.55516 5.35069 1.48483 5.28037C1.41451 5.21004 1.375 5.11466 1.375 5.0152C1.375 4.91574 1.41451 4.82036 1.48483 4.75004C1.55516 4.67971 1.65054 4.6402 1.75 4.6402H2.39C2.4829 4.63967 2.57269 4.67364 2.64197 4.73553C2.71125 4.79743 2.75509 4.88283 2.765 4.9752L2.845 5.8002C2.84943 5.82696 2.86181 5.85177 2.88054 5.87139C2.89927 5.89101 2.92347 5.90454 2.95 5.9102C2.97707 5.915 3.00496 5.91075 3.02937 5.89809C3.05377 5.88544 3.07333 5.86509 3.085 5.8402L3.585 4.8002C3.60302 4.75135 3.63101 4.70679 3.6672 4.66936C3.70338 4.63192 3.74697 4.60243 3.79517 4.58276C3.84338 4.56309 3.89516 4.55368 3.9472 4.55512C3.99925 4.55656 4.05042 4.56882 4.09747 4.59113C4.14451 4.61343 4.1864 4.64529 4.22046 4.68467C4.25452 4.72405 4.28001 4.77009 4.29529 4.81986C4.31058 4.86963 4.31534 4.92203 4.30927 4.97374C4.30319 5.02545 4.28641 5.07533 4.26 5.1202V5.1052ZM5.19 7.1052C5.17176 7.18989 5.12513 7.26581 5.05784 7.32037C4.99055 7.37493 4.90663 7.40486 4.82 7.4052C4.7646 7.40484 4.70996 7.39221 4.66002 7.36822C4.61008 7.34423 4.56608 7.30947 4.53118 7.26644C4.49628 7.22341 4.47135 7.17318 4.45817 7.11937C4.445 7.06555 4.44392 7.00949 4.455 6.9552L4.86 4.9252C4.86985 4.87694 4.88911 4.83109 4.91668 4.79027C4.94424 4.74946 4.97958 4.71447 5.02067 4.68731C5.06176 4.66015 5.1078 4.64134 5.15615 4.63197C5.20451 4.62261 5.25424 4.62285 5.3025 4.6327C5.35076 4.64255 5.39661 4.66181 5.43743 4.68938C5.47825 4.71694 5.51323 4.75228 5.54039 4.79337C5.56756 4.83446 5.58636 4.8805 5.59573 4.92886C5.6051 4.97721 5.60485 5.02694 5.595 5.0752L5.19 7.1052ZM7.79 5.0702C7.76526 5.16622 7.7035 5.24852 7.61823 5.29912C7.53297 5.34972 7.43113 5.36449 7.335 5.3402C7.205 5.3052 6.945 5.2602 6.835 5.3702C6.725 5.4802 7.015 5.6202 7.08 5.6552C7.705 6.0402 7.755 6.4452 7.685 6.7152C7.64981 6.8491 7.5872 6.97424 7.50113 7.08269C7.41506 7.19113 7.30741 7.28052 7.185 7.3452C7.02089 7.4287 6.83913 7.47157 6.655 7.4702C6.44835 7.46566 6.2439 7.4268 6.05 7.3552C5.95585 7.32271 5.87846 7.25415 5.83486 7.1646C5.79125 7.07506 5.78501 6.97185 5.8175 6.8777C5.84999 6.78355 5.91855 6.70616 6.0081 6.66256C6.09765 6.61896 6.20085 6.61271 6.295 6.6452C6.46425 6.72414 6.65698 6.73663 6.835 6.6802C6.86708 6.66737 6.89465 6.64533 6.91423 6.61686C6.9338 6.58838 6.94451 6.55475 6.945 6.5202C6.945 6.4102 6.77 6.3452 6.685 6.2952C5.915 5.7952 5.985 5.3252 6.185 4.9952C6.555 4.3802 7.425 4.5852 7.525 4.6152C7.61754 4.63997 7.69686 4.69966 7.74629 4.78173C7.79571 4.86379 7.81138 4.96182 7.79 5.0552V5.0702ZM10.03 7.3752C9.93077 7.38215 9.83277 7.34991 9.75705 7.2854C9.68133 7.2209 9.63392 7.12927 9.625 7.0302V6.9202C9.62371 6.88925 9.6105 6.86 9.58813 6.83856C9.56577 6.81713 9.53598 6.80517 9.505 6.8052H9.115C9.09103 6.80403 9.06726 6.81008 9.04676 6.82256C9.02626 6.83503 9.00997 6.85337 9 6.8752L8.85 7.1952C8.82866 7.23985 8.79874 7.27986 8.76193 7.31294C8.72513 7.34603 8.68217 7.37154 8.63551 7.38802C8.58885 7.4045 8.5394 7.41163 8.48998 7.40901C8.44056 7.40638 8.39215 7.39404 8.3475 7.3727C8.25733 7.3296 8.18797 7.25245 8.15468 7.15821C8.1382 7.11155 8.13107 7.0621 8.13369 7.01268C8.13632 6.96327 8.14866 6.91485 8.17 6.8702L9.14 4.8452C9.17213 4.77676 9.22301 4.71883 9.28672 4.67812C9.35044 4.63741 9.42439 4.61559 9.5 4.6152H9.87C9.9624 4.61846 10.0504 4.6553 10.1176 4.7188C10.1848 4.78231 10.2265 4.86814 10.235 4.9602C10.275 5.4602 10.275 5.4602 10.4 6.9602C10.4027 7.01093 10.3952 7.06168 10.3779 7.10946C10.3607 7.15723 10.334 7.20106 10.2995 7.23836C10.265 7.27565 10.2234 7.30564 10.1771 7.32657C10.1308 7.3475 10.0808 7.35894 10.03 7.3602V7.3752Z" fill="black"/>
<path d="M9.38501 6.04L9.52001 5.75L9.54501 6.04H9.38501Z" fill="black"/>
</g>
<defs>
<clipPath id="clip0_1761_1932">
<rect width="12" height="12" fill="white"/>
</clipPath>
</defs>
</svg>
