<svg width="47" height="46" viewBox="0 0 47 46" fill="none" xmlns="http://www.w3.org/2000/svg">
<circle cx="23.5" cy="23" r="23" fill="black"/>
<g clip-path="url(#clip0_1103_1062)">
<path d="M34.93 21.67C34.9081 21.4861 34.8198 21.3166 34.6817 21.1932C34.5436 21.0698 34.3652 21.0011 34.18 21H23.75C23.5519 21.0026 23.3626 21.0824 23.2225 21.2225C23.0824 21.3626 23.0026 21.5519 23 21.75V25.25C23.0026 25.4481 23.0824 25.6374 23.2225 25.7775C23.3626 25.9176 23.5519 25.9974 23.75 26H29.33C28.7932 27.1316 27.9627 28.0985 26.9249 28.7998C25.8872 29.5011 24.6803 29.9111 23.4301 29.9871C22.18 30.0631 20.9323 29.8023 19.8173 29.2318C18.7023 28.6614 17.7607 27.8022 17.0908 26.744C16.4209 25.6857 16.0472 24.4671 16.0087 23.2152C15.9702 21.9633 16.2683 20.724 16.8719 19.6266C17.4755 18.5291 18.3625 17.6137 19.4404 16.9759C20.5182 16.338 21.7475 16.001 23 16C24.5271 15.9992 26.0126 16.4979 27.23 17.42C27.3751 17.5359 27.5584 17.5931 27.7437 17.5801C27.9289 17.5672 28.1025 17.485 28.23 17.35L30.7 14.86C30.7746 14.7857 30.8328 14.6966 30.8707 14.5984C30.9086 14.5002 30.9254 14.3951 30.92 14.29C30.9137 14.1864 30.8865 14.0852 30.8401 13.9924C30.7937 13.8996 30.7291 13.8172 30.65 13.75C28.5485 12.0112 25.9173 11.0401 23.1901 10.9969C20.4628 10.9537 17.8022 11.8409 15.6467 13.5123C13.4912 15.1837 11.9694 17.5396 11.3321 20.1917C10.6948 22.8438 10.9801 25.6339 12.1408 28.1021C13.3016 30.5704 15.2686 32.5696 17.7177 33.7703C20.1669 34.9709 22.952 35.3014 25.6141 34.7072C28.2762 34.113 30.6564 32.6297 32.3626 30.5016C34.0687 28.3735 34.9989 25.7276 35 23C35.0016 22.5557 34.9782 22.1117 34.93 21.67Z" fill="white"/>
</g>
<defs>
<clipPath id="clip0_1103_1062">
<rect width="24" height="24" fill="white" transform="translate(11 11)"/>
</clipPath>
</defs>
</svg>
