<svg width="29" height="29" viewBox="0 0 29 29" fill="none" xmlns="http://www.w3.org/2000/svg">
<path d="M25.525 14.5C25.525 8.41105 20.5889 3.475 14.5 3.475C8.41103 3.475 3.47498 8.41105 3.47498 14.5C3.47498 16.496 4.00523 18.3677 4.9329 19.9826C4.45515 21.2305 4.0047 22.6795 3.70913 24.128C3.6754 24.2848 3.68224 24.4477 3.729 24.6012C3.77576 24.7547 3.8609 24.8938 3.97637 25.0052C4.09184 25.1166 4.23382 25.1967 4.38889 25.238C4.54395 25.2792 4.70698 25.2803 4.86255 25.241C6.25013 24.9123 7.65818 24.4566 8.89508 23.9962C10.5921 25.0001 12.5283 25.5282 14.5 25.525C20.5889 25.525 25.525 20.5889 25.525 14.5Z" stroke="black" stroke-width="2" stroke-linejoin="round"/>
</svg>
