<svg width="16" height="16" viewBox="0 0 16 16" fill="none" xmlns="http://www.w3.org/2000/svg">
<g clip-path="url(#clip0_992_2930)">
<path fill-rule="evenodd" clip-rule="evenodd" d="M9.14297 -0.441772C8.83986 -0.441772 8.54917 -0.321365 8.33485 -0.107037C8.12052 0.10729 8.00011 0.39798 8.00011 0.701085C8.00011 1.00419 8.12052 1.29488 8.33485 1.50921C8.54917 1.72353 8.83986 1.84394 9.14297 1.84394H10.8573C11.0088 1.84394 11.1542 1.90415 11.2613 2.01131C11.3685 2.11847 11.4287 2.26382 11.4287 2.41537V9.27251H9.7144C9.60123 9.27231 9.49055 9.30571 9.39639 9.36849C9.30223 9.43127 9.22883 9.52059 9.1855 9.62513C9.14217 9.72967 9.13085 9.84472 9.15298 9.9557C9.17511 10.0667 9.2297 10.1686 9.30983 10.2485L12.167 13.1057C12.22 13.1589 12.2831 13.2011 12.3525 13.2299C12.422 13.2587 12.4964 13.2735 12.5715 13.2735C12.6467 13.2735 12.7211 13.2587 12.7905 13.2299C12.86 13.2011 12.923 13.1589 12.9761 13.1057L15.8333 10.2485C15.9134 10.1686 15.968 10.0667 15.9901 9.9557C16.0122 9.84472 16.0009 9.72967 15.9576 9.62513C15.9142 9.52059 15.8408 9.43127 15.7467 9.36849C15.6525 9.30571 15.5418 9.27231 15.4287 9.27251H13.7144V2.41537C13.7144 2.04017 13.6405 1.66863 13.4969 1.32199C13.3533 0.975345 13.1429 0.660376 12.8776 0.395065C12.6122 0.129755 12.2973 -0.0807005 11.9506 -0.224285C11.604 -0.36787 11.2325 -0.441772 10.8573 -0.441772L9.14297 -0.441772ZM3.83325 2.0108C3.78017 1.95758 3.71712 1.91536 3.64769 1.88656C3.57827 1.85775 3.50385 1.84292 3.42868 1.84292C3.35352 1.84292 3.2791 1.85775 3.20967 1.88656C3.14025 1.91536 3.07719 1.95758 3.02411 2.0108L0.166968 4.86794C0.0868459 4.94786 0.0322579 5.04977 0.0101245 5.16075C-0.012009 5.27173 -0.000691171 5.38679 0.0426431 5.49133C0.0859775 5.59587 0.159377 5.68519 0.253536 5.74797C0.347695 5.81074 0.458373 5.84414 0.571539 5.84394H2.28583V12.7011C2.28583 13.4588 2.58684 14.1856 3.12266 14.7214C3.65848 15.2572 4.38521 15.5582 5.14297 15.5582H6.85725C7.16036 15.5582 7.45105 15.4378 7.66538 15.2235C7.8797 15.0092 8.00011 14.7185 8.00011 14.4154C8.00011 14.1123 7.8797 13.8216 7.66538 13.6072C7.45105 13.3929 7.16036 13.2725 6.85725 13.2725H5.14297C4.99142 13.2725 4.84607 13.2123 4.73891 13.1051C4.63174 12.998 4.57154 12.8526 4.57154 12.7011V5.84394H6.28583C6.39899 5.84414 6.50967 5.81074 6.60383 5.74797C6.69799 5.68519 6.77139 5.59587 6.81472 5.49133C6.85806 5.38679 6.86937 5.27173 6.84724 5.16075C6.82511 5.04977 6.77052 4.94786 6.6904 4.86794L3.83325 2.0108Z" fill="black"/>
</g>
<defs>
<clipPath id="clip0_992_2930">
<rect width="16" height="16" fill="white"/>
</clipPath>
</defs>
</svg>
