<svg width="12" height="12" viewBox="0 0 12 12" fill="none" xmlns="http://www.w3.org/2000/svg">
<g clip-path="url(#clip0_1761_1921)">
<path d="M10.955 1.7502H1.045C0.773986 1.74483 0.51188 1.84704 0.316036 2.03445C0.120192 2.22186 0.00655823 2.47921 0 2.7502L0 9.2502C0.00655823 9.52119 0.120192 9.77855 0.316036 9.96596C0.51188 10.1534 0.773986 10.2556 1.045 10.2502H10.955C11.226 10.2556 11.4881 10.1534 11.684 9.96596C11.8798 9.77855 11.9934 9.52119 12 9.2502V2.7502C11.9934 2.47921 11.8798 2.22186 11.684 2.03445C11.4881 1.84704 11.226 1.74483 10.955 1.7502ZM7.535 8.8402C6.95956 8.83714 6.40165 8.64179 5.95 8.2852C5.92759 8.26856 5.90041 8.25957 5.8725 8.25957C5.84459 8.25957 5.81741 8.26856 5.795 8.2852C5.34545 8.6421 4.78899 8.83757 4.215 8.8402C3.52809 8.8402 2.86931 8.56733 2.38359 8.08161C1.89787 7.59589 1.625 6.93711 1.625 6.2502C1.625 5.56329 1.89787 4.90451 2.38359 4.41879C2.86931 3.93308 3.52809 3.6602 4.215 3.6602C4.78899 3.66284 5.34545 3.8583 5.795 4.2152C5.81707 4.23264 5.84437 4.24213 5.8725 4.24213C5.90063 4.24213 5.92793 4.23264 5.95 4.2152C6.27487 3.96237 6.65542 3.79078 7.05999 3.71472C7.46456 3.63865 7.88145 3.66031 8.27596 3.77788C8.67047 3.89546 9.0312 4.10555 9.32812 4.39068C9.62504 4.67582 9.84958 5.02774 9.98303 5.41716C10.1165 5.80659 10.155 6.22225 10.0954 6.62957C10.0358 7.03689 9.87974 7.42408 9.64027 7.75892C9.40081 8.09377 9.08483 8.36658 8.71865 8.55465C8.35247 8.74272 7.94666 8.84062 7.535 8.8402Z" fill="black"/>
<path d="M9.37503 6.25016C9.37503 5.76216 9.18117 5.29415 8.8361 4.94908C8.49104 4.60401 8.02302 4.41016 7.53503 4.41016C7.15052 4.41232 6.77699 4.53858 6.47003 4.77016C6.44583 4.78817 6.42931 4.81464 6.42375 4.84429C6.41819 4.87394 6.424 4.9046 6.44003 4.93016C6.67881 5.32905 6.80492 5.78525 6.80492 6.25016C6.80492 6.71506 6.67881 7.17126 6.44003 7.57016C6.424 7.59571 6.41819 7.62637 6.42375 7.65602C6.42931 7.68567 6.44583 7.71214 6.47003 7.73016C6.77699 7.96173 7.15052 8.088 7.53503 8.09016C8.02302 8.09016 8.49104 7.8963 8.8361 7.55123C9.18117 7.20617 9.37503 6.73815 9.37503 6.25016Z" fill="black"/>
</g>
<defs>
<clipPath id="clip0_1761_1921">
<rect width="12" height="12" fill="white"/>
</clipPath>
</defs>
</svg>
