<svg width="32" height="32" viewBox="0 0 32 32" fill="none" xmlns="http://www.w3.org/2000/svg">
<path d="M26.2667 2.80005H5.73332C4.95535 2.80005 4.20925 3.1091 3.65914 3.6592C3.10903 4.20931 2.79999 4.95541 2.79999 5.73338V26.2667C2.79999 27.0447 3.10903 27.7908 3.65914 28.3409C4.20925 28.891 4.95535 29.2 5.73332 29.2H26.2667C27.0446 29.2 27.7907 28.891 28.3408 28.3409C28.8909 27.7908 29.2 27.0447 29.2 26.2667V5.73338C29.2 4.95541 28.8909 4.20931 28.3408 3.6592C27.7907 3.1091 27.0446 2.80005 26.2667 2.80005Z" stroke="#C54B00" stroke-width="2.4" stroke-linecap="round" stroke-linejoin="round"/>
<path d="M2.79999 11.6001H29.2" stroke="#C54B00" stroke-width="2.4" stroke-linecap="round" stroke-linejoin="round"/>
<path d="M13.0667 18.9333H18.9333" stroke="#C54B00" stroke-width="2.4" stroke-linecap="round" stroke-linejoin="round"/>
</svg>
